<?xml version="1.0" encoding="UTF-8"?>
<!DOCTYPE svg PUBLIC "-//W3C//DTD SVG 1.1//EN" "http://www.w3.org/Graphics/SVG/1.1/DTD/svg11.dtd">
<!-- Creator: CorelDRAW 2020 (64-Bit) -->
<svg xmlns="http://www.w3.org/2000/svg" xml:space="preserve" width="297mm" height="210mm" version="1.1" style="shape-rendering:geometricPrecision; text-rendering:geometricPrecision; image-rendering:optimizeQuality; fill-rule:evenodd; clip-rule:evenodd"
viewBox="0 0 29700 21000"
 xmlns:xlink="http://www.w3.org/1999/xlink"
 xmlns:xodm="http://www.corel.com/coreldraw/odm/2003">
 <defs>
  <style type="text/css">
   <![CDATA[
    .fil2 {fill:black}
    .fil0 {fill:#054DB3}
    .fil1 {fill:#058DD6}
    .fil3 {fill:#2786B9}
   ]]>
  </style>
 </defs>
 <g id="Capa_x0020_1">
  <metadata id="CorelCorpID_0Corel-Layer"/>
  <path class="fil0" d="M4562.79 10921.62c-55.21,-651.76 35.61,-1603.72 159.13,-2235.52 350.47,-1792.56 1200.03,-3413.87 2495.22,-4763.69 743.36,-774.71 1834.55,-1596.27 2832.04,-2042.04 893.99,-399.52 1343.66,-570.14 2281.36,-778.8 446.46,-99.36 1194.43,-197.6 1632.55,-209.89 2775.09,-77.79 5199.42,762.43 7217.15,2575.63 862.04,774.66 1575.34,1701.15 2109.45,2744.96 222.59,434.99 371.56,809.21 535.19,1264.98 60.37,168.16 87.16,300.37 143.06,474.33 202.6,630.5 298.69,1383.56 333.46,2074.36 133.19,2646.25 -838.73,5064.42 -2648.94,6981.28 -762.56,807.49 -1807.68,1569.16 -2830,2046.64 -577.23,269.59 -1167.61,509.13 -1788.97,660.35 -700.88,170.57 -1392.98,304.39 -2123.2,326.62 -2762.96,84.14 -5231.45,-770.49 -7221.06,-2570.68 -1611.08,-1457.69 -2640.7,-3343.77 -3008.17,-5457.31 -64.95,-373.56 -86.29,-713.64 -118.27,-1091.22zm20064.74 -2359.72c-6.06,-102.61 -26.52,-196.57 -49.25,-281.69 -76.34,-286.05 -91.4,-418.99 -199.71,-760.72l-162 -472.04c-276.82,-741.19 -639.74,-1447.6 -1077.92,-2098.46 -614.25,-912.39 -1593.59,-1944.83 -2524.68,-2596.27l-391.86 -266.24c-1008.35,-659.85 -1946.74,-1035.05 -3115.37,-1374.45 -539.4,-156.65 -1701.82,-306.71 -2267.26,-320.97 -832.5,-20.99 -1609.82,28.37 -2414.52,175.79 -1254.93,229.89 -2629.45,769.32 -3691.4,1462.89 -679.51,443.79 -872,606.89 -1446.46,1111.33 -434.21,381.27 -866.33,871.12 -1218.68,1332.8 -389.92,510.91 -693.68,1009.44 -986.62,1573.11 -309.28,595.13 -501.27,1184.55 -699.51,1839.83 -221.69,732.72 -269.98,1413.65 -339.15,2180.23 -68.39,757.86 69.96,1587.65 181.75,2319.82 27.41,179.55 84.36,348.97 122.96,522 183.43,822.1 666.66,1965.08 1127.32,2681.88 247.28,384.79 496.72,766.08 793.36,1116.07 885.61,1044.9 1560.19,1649.7 2755.12,2374.09 711.35,431.24 1900.22,952.41 2717.51,1132.59 760.42,167.65 1455.33,305.86 2257.63,328.03 2221.93,61.4 4236.56,-436.9 6117.04,-1627.16 1613.06,-1021 2807.58,-2366.43 3659.09,-4010.37 304.39,-587.67 520.1,-1197.76 704.49,-1833.27 54.56,-188.04 202.19,-850.5 224.21,-1040.23 43.03,-370.73 109.33,-759.13 115.52,-1138.69 6.37,-390.2 21.82,-853.6 -21.26,-1237.47 -21.62,-192.74 -41.52,-365.76 -69.45,-552.47 -14.82,-99.08 -15.46,-190.08 -37.53,-290.27 -21.69,-98.52 -35.09,-159.22 -45.36,-264.58 -28.22,-7.38 3.15,-17.61 -20.84,6.26 -29.95,29.8 -0.24,8.2 2.83,8.63z"/>
  <path class="fil1" d="M5387.74 10921.37c-27.14,-294.97 -15.27,-766.04 13.28,-1063.22 93.72,-975.12 244.41,-1730.75 636.17,-2679.02 1315.29,-3183.69 4379.6,-5267.27 7926.11,-5482.53 2988.67,-181.4 5914.59,1190.76 7697.88,3478.49 305.62,392.06 651.42,903.91 865.42,1353.97 231.07,485.95 513.66,1067.48 630.01,1579.47 32.9,144.76 75.53,285.43 116.21,427.49 37.33,130.38 55.99,327.68 90.02,472.41 68.72,292.19 92.71,675.96 111.95,1000.02 139.83,2354.88 -750.72,4709.85 -2389.22,6415.09 -666.47,693.61 -1687.18,1502.89 -2572.51,1887.5 -255.44,110.96 -507,243.92 -772.37,337.05 -284.81,99.95 -558.08,187.62 -851.15,278.09 -1185.05,365.81 -2874.23,397.1 -4091.51,178.82 -300.96,-53.96 -616.5,-119.98 -906.44,-207.67 -269.59,-81.53 -595.69,-173.81 -847.7,-282.63 -1191.24,-514.42 -1791.55,-860.32 -2771.3,-1709.87 -658.04,-570.59 -1303.28,-1380.28 -1735.89,-2140.77 -216.67,-380.88 -378.43,-703.89 -545.73,-1118.03 -378.01,-935.76 -510.13,-1712.67 -603.23,-2724.66zm8353.61 -9624.54c-84.65,11.27 -171.21,8.73 -261.83,22 -260.45,38.16 -510.36,46.83 -785.99,102.98 -2090.02,425.71 -3841.42,1311.96 -5303.51,2890.87 -804.35,868.6 -1347.25,1756.08 -1802.74,2835.25 -466.1,1104.26 -730.1,2738.11 -605.69,3978.47 57.41,572.3 100.12,946.6 232.38,1496.88 67.94,282.67 181.74,596.19 268.89,871.95 257.34,814.27 919.64,1936.63 1463.26,2607.11 350.37,432.13 728.65,831.98 1146.6,1196.38 877.13,764.74 1835.85,1325.96 2926.79,1747.26 687.43,265.48 1150.79,355.73 1858.19,490.81 709.28,135.44 1507.16,130.92 2241.87,100.55 1178.51,-48.71 2655,-477.77 3682.84,-1011.63 1019.81,-529.68 1895.79,-1166.43 2668.22,-1998.58 1168.39,-1258.7 2063.07,-2964.09 2311.71,-4642.16 101.85,-687.35 174.76,-1492.42 103.02,-2187.87 -34.41,-333.54 -43.64,-682.61 -132.06,-1005.41 -39.53,-144.32 -63.24,-326.36 -102.78,-480.85 -752.94,-2941.69 -2874.24,-5330.33 -5811.41,-6427.19 -898.31,-335.46 -1968.28,-572.7 -2929.58,-600.91 -333.54,-9.78 -853.25,-27.82 -1168.18,14.09z"/>
  <path class="fil1" d="M17970.55 13816.92c-37.49,282.92 -632.36,240.7 -569.86,-135.64 49.7,-299.26 586.93,-337.88 574.42,82.39l-349.03 3.36c-17.03,196.79 124.73,51.97 207.55,42.02 39.39,-4.73 97.39,2.57 136.92,7.87zm-3544.06 46.79c-77.03,71.94 -118.59,130.38 -252.41,134.96 -205.79,7.03 -168.19,-51.88 -285.39,-119.53l-73.86 -7.62 -45.14 158.15c-113.04,13.56 -446.41,21.71 -518.75,-51.54 -62.73,-63.51 -69.87,-108.03 -76.57,-197.79 -15.05,-201.8 -3.32,-229.4 69.32,-239.24l-15.45 6.85c-8.62,-173.94 211.48,-112.25 281.59,-137.82l4.44 -127.52c73.61,-44.96 210.12,-58.49 270.69,-9.45 59.58,65.16 28.22,261.18 22.45,354.81 41.32,-32.36 118.77,-283.29 455.72,-191.91 185.14,50.21 245.2,206.46 201.97,378.03 -18.1,71.83 13.94,32.36 -38.61,49.62zm2385.75 129.78c-89.01,-0.01 -37.01,-144.15 -46.1,-317.41 -162.1,2 -128.5,109.14 -129.1,240.92 -0.46,100.3 -5.63,59.52 -46.12,121.51 -39.11,4.99 -141.97,15.18 -177.22,-5.88 -50.56,-30.21 -14.15,-12.5 -27.28,-37.08 -123.29,2.79 -100.76,31.49 -181.68,40.11 -77.35,8.24 -95.83,-24.4 -189.02,-15.23 -205.16,20.21 -152.92,30.1 -324.88,-62.83l-5.78 -221.37 84.83 -53.6c-40.79,-75.04 -40.2,-16.68 -75.98,-93.22 40.44,-124.13 129.08,-156.47 262.23,-171.11 218.71,-24.06 325.07,57.18 372.6,53.11 115.69,-36.37 50.09,-59.31 201.32,-38.76 58.47,7.94 167.09,-9.02 233.42,-14.37 4,-121.75 55.4,-207.98 195.42,-162.84 66.11,21.31 19.94,-12.33 52.08,38.43l-6.26 350.99 181.76 -179.67 166.88 -0.95 -145.6 175.34 173.33 349.32 -204.74 4.47 -106.96 -203.48c-92.09,57.76 -59.01,100.53 -68.9,200.62l-188.25 2.98zm3190.9 83.63c-6.77,4.47 -91.6,72.59 -93.87,74.72l-14.81 43.25c-255.38,11.19 -460.91,70.15 -552.02,-161.83 -160.27,-1.33 -123.79,19.66 -262.86,-41.96 -111.26,23.74 -155.58,92.73 -295.83,7.83 -30.86,-81.22 -30.95,-463.4 6,-540.09 87.61,-62.36 157.93,-20.38 261.92,-35.3 175.54,-25.2 144.05,4.21 278.04,27.42 8.16,36.41 12.52,59.13 22.69,93.76 21.09,71.86 10.06,234.35 11.22,321.9 46.09,-60.38 62.43,-139.66 75.13,-196.7 -91.92,-6.12 -74.69,-227.97 200.07,-247 245.65,-17.01 156.68,-151.92 350.08,-111.51 59.27,12.39 41.2,14.06 58.56,24.44 52.84,191.25 -52.92,101.06 -51.3,218.33 2.96,214.46 4.96,78.88 -64,242.25 14.36,22.24 19.17,31.26 39.42,50.26 15.75,14.79 72.23,35.85 72.7,136.83 0.53,114.63 -4.14,65.68 -41.14,93.4zm-4387.94 -80.38l-186.86 -5.49c-24.88,-119.43 26.51,-285.81 -28.9,-385.01 -159.37,-1.11 -54.02,139.79 -95.53,386.1l-187.62 2.41c-171.51,-36.72 -0.62,49.33 -338.93,16.84 -14.58,-122.44 -34.89,-495.79 27.12,-589.06 64.29,-24.01 84.68,2.9 157.24,8.57 89.97,7.04 122.55,-24.2 191.52,-19.43 76.71,5.31 60.94,41.68 157.72,32.79 85.07,-7.81 84.09,-33.33 195.07,-20.42 201.6,23.45 151.32,158.6 157.43,406.65 2.24,90.73 37.25,149.38 -48.26,166.05zm-3851.4 6.93c-57.69,-15.89 -84.09,-1.26 -146.59,-6.93 -62.68,-5.69 -60.26,-23.73 -118.69,-22.97 -63.59,-10.07 -74.26,-27.52 -126.89,-53.03 -65.96,63.16 -29.29,102.36 -139.76,114.6 -133.72,14.82 -117.58,-25.14 -210.53,-49.12 -54.34,4.42 -142.48,114.17 -292.5,6.45 -96.19,-69.07 -120.94,36.89 -357.4,43.28 -125.4,3.39 -171.28,-45.44 -260.85,-89.03 -42.71,81.83 30.7,-7.05 -71.3,192.61l-50.78 3.94c-56.46,-1.02 -98.65,18.3 -159.35,24.53 -71.5,7.33 -126.68,-0.26 -199.87,10.21 -100.71,25.02 -53.14,-7.56 -221.02,-38.55 3.42,-3.43 6.86,49.96 5.2,-13.4 -0.18,-6.68 6.98,-3.21 -3.49,-33.88 -12.5,-36.62 -24.41,-47.15 -55.26,-57.59 -78.39,-26.54 -96.98,9.61 -171.49,8.12 -91.2,-80.64 -41.15,-69.94 -90.34,-152.15l-102.55 -10.68c-34.66,54.66 -30.84,113.81 -114.87,144.79 -110.98,40.91 -162.59,9.01 -183.04,-92.26l52.15 -33.97c44.36,-111.19 144.72,-554.83 219.29,-603.42l206.83 -12.55c55.99,171.58 150.26,399.43 192.44,582.3l54.34 -4.66c30.75,-122.55 63.6,-71.91 31.97,-207.29 -48.89,-209.29 139.31,-221.49 276.62,-229.76 204.62,-12.33 56.64,-171.35 361.11,-97.05l1.1 188.38c150.32,-37.77 106.76,-110.11 320.39,-91.28 88.02,7.76 252.63,15.25 244.29,167.02l-7.02 -10.49c47.3,26.78 51.47,40.82 73.17,79.5 2.83,-88.64 -23.43,-109.94 -1.57,-202.47 254.88,-81.08 87.89,-26.43 250.91,-26.74 103.24,-0.2 285.07,-72.22 341.67,85.15 23.26,64.67 1.21,53.7 45.19,84.37 45.03,-35.93 46.24,-175.96 296.28,-182.25 153.39,-3.85 309.01,83 282.7,162.43 15.83,-72.6 39.61,-100.87 23.16,-182.73 -35.26,-175.5 -4.93,-131.81 35.13,-181.35 319.65,6.23 232.83,17.38 225.77,224.82 -1.58,46.46 7.73,75 44.8,117.09 111.17,-95.6 3.84,-91.33 209.19,-133.75 82.43,-17.03 230.19,-8.27 306.03,27.28 100.34,47.04 99.91,127.02 102.26,225.26 1.78,74.68 21.96,273.37 -5.5,325.75 -79.49,81.63 -181.83,-5.19 -322.98,22.24 -149.09,28.98 -206.59,-4.38 -302.76,-98.85 -13.95,22.77 -14.23,1.98 -14.59,40.87 -0.54,56.88 11.91,18.44 14.82,17.54 -83.86,35.44 -10.8,31.57 -107.86,45.05l-139.61 26.18c-47.66,-45.64 -35.2,-76.29 -70.04,-125.85 -107.69,24.01 -22.02,86.46 -168.31,74.29zm6716.37 -746.84l206.92 5.56 5.46 156.51 0 45.37 -3.6 525.57c-24.57,100.22 -207.79,22.96 -278.27,17.57 -0.26,0.05 -142.99,94.96 -298.79,-21.14 -92.51,-68.93 -64.19,-248.76 -67.08,-356.62l-43.46 -38.89 11.77 -115.9c46.27,-24.35 33.67,0.37 79.85,-35.84l3.56 -145.16 190.28 -4.6 7.26 165.57 104.35 9c89.44,-2.61 29.66,3.58 55.17,-22.98l-30.47 -169.62c34.88,-34.2 2.51,-9.19 57.05,-14.4zm-10141.62 -175.96c-31.23,86.94 -25.52,1190.25 5.15,1288.91 488.89,23.59 1027.17,1.92 1521.69,2.4 1148.3,1.12 10437.13,22.92 10531.05,-10.08 25.82,-76.68 24.2,-1208.07 -2.35,-1280.98 -91.03,-41.13 -11972.88,-38.12 -12055.54,-0.25z"/>
  <path class="fil2" d="M8357.51 9837.31c60.86,29.93 900.95,189.16 998.32,187.45 19.54,-170.3 65.15,-403.22 185.81,-534.14 427.47,-463.81 1217.71,170.73 471.74,882.02 -242.05,230.8 -550.37,476.42 -813.59,672.17 -100.23,74.53 -846.94,569.63 -864,611.33 -5.33,126.25 -20.63,808.3 9.49,879.67 62.26,28.31 2873.13,31.21 3140.58,11.44 33.07,-141.12 54.01,-797.19 40.04,-955.27 -295.42,-29.97 -1435.28,35.5 -1592.88,-18.72 -5.83,-45.96 539.26,-396.78 640.46,-469.59 215.34,-154.91 464.79,-344.83 627.77,-530.2 404.06,-459.56 419.95,-1230.1 -26.45,-1682.31 -595.23,-602.97 -1883.75,-598.03 -2486.77,127.6 -142.56,171.55 -353.04,598.27 -330.52,818.55z"/>
  <path class="fil2" d="M12855.2 10795.47c14.83,-114.27 306.71,-504.39 391.62,-633.51 45.7,-69.48 326.91,-560.55 417.19,-569.17l-3.28 1193.83c-104.12,25.87 -672.4,17.75 -805.53,8.85zm785.99 867.42c40.8,82.8 13.84,772.24 20.96,881.1 131.9,21.38 1036.29,29.87 1102.88,-8 33.73,-30.45 18.43,-157.05 18.41,-200.32 -0.06,-172.71 -25.92,-577.92 14.48,-669.17 169.71,-50.13 410.96,31.3 570.26,-23.55 24.5,-77.46 21.34,-746.53 1.96,-840.82l-583.31 -4.83 -2.31 -2343.03c-302.79,-21.15 -673.39,-2.76 -978.39,-2.46 -223.1,0.21 -247.25,-52.72 -359.17,120.2 -62.14,96.01 -126.83,190.87 -193.62,289.51l-1161.31 1727.65c-98.92,143.73 -138.38,152.57 -138.74,336.29 -1.62,838.03 -68.15,728.58 224,728.74 293.96,0.16 1314.97,-20.32 1463.9,8.69z"/>
  <path class="fil1" d="M17383.68 5360.84c12.07,112.33 317.85,470.31 352.91,621.31 -48.47,74.72 -665.29,423.57 -779.98,491.44 -261.53,154.76 -525.35,318.67 -786.16,477.01 -189.71,115.18 -1533.08,904.71 -1580.37,969.32 138.55,5.34 655.09,-25.69 739.42,17.28 35.32,83.97 11.95,711.13 14.49,855.64 109.63,-4.99 660.03,-368.87 793.53,-448.67 230.2,-137.6 2254.2,-1395.07 2311.61,-1382.62 117.73,77.43 271.64,450.9 401.14,547.09 60.23,-59.63 1216.23,-2165.4 1223.87,-2219.6 -344.68,-18.31 -2310.26,41.24 -2690.46,71.8z"/>
  <path class="fil2" d="M17345.27 9496.2l1917.45 4.64c-1.43,75.84 -168.28,232.16 -222.79,300.83 -439.67,553.95 -735.24,1101.69 -936.39,1777.16 -82.56,277.24 -159.57,675.12 -135.78,964.54l1317.43 1.91c12.52,-215 -6.19,-407.59 21.14,-618.32 84.31,-650.11 146.27,-892.01 402.45,-1527.61 134.46,-333.62 362.36,-736.93 591.11,-1022.96 74.62,-93.29 99.91,-93.05 100.56,-216.44 1.05,-198.55 11.51,-441.09 -3.82,-635.08 -167.47,-29.49 -2290.04,-7.32 -2772.38,-9.13 -82,-0.31 -190,-24.57 -207.5,49.13 -24.11,101.53 -79.48,825.98 -71.48,931.33z"/>
  <path class="fil1" d="M10971.84 8088.66c34.51,37.42 285.02,166.03 363.79,221.86 119.7,84.84 211.34,192.53 316.23,268.93 160.41,-14.48 410.58,-187.88 578.18,-206.85 133.08,61.29 329.84,302.51 455.16,328.33 190.2,-189.4 359.14,-592.99 542.95,-773.74l374.26 -7.43c-23.94,-82.18 -546.62,-413.15 -648.29,-482.85l-492.61 -338.61c-89.43,-56.73 -120.96,-9.93 -194.14,41.97 -95.82,67.98 -1233.19,878.79 -1295.53,948.39z"/>
  <path class="fil3" d="M11987.98 13462.9l198.52 2.59 4.02 522.72 -195.96 3.21 -6.58 -528.52zm-1026.03 528.58l-191.77 -1.25 -4.92 -524.53 167.78 -0.14 30.23 55.83c134.48,-99.89 264.77,-77.33 308.56,13.42 31.12,64.49 17.79,365.05 14.06,452.75l-202.13 -3.39c-7.79,-120.99 27.08,-282.03 -20.13,-381.35 -104.99,-28.95 -95.72,54.8 -94.91,142.03 0.77,82.14 7.78,165.64 -6.77,246.63zm1521.82 -361.86l-153.17 -14.54c-4.47,-181.45 309.41,-193.87 428.34,-126.43 88.94,50.44 81.37,134.35 81.73,222.68 0.34,83.14 11.1,205.15 7.05,278.56 -54.75,1.93 -148.45,18.13 -189.03,-16.57l-26.03 -34.26c-223.09,132.41 -345.43,13.8 -345.94,-91.37 -0.93,-189.91 236.3,-159.99 345.69,-203.95 -1.61,-111.35 -105.93,-78.79 -148.64,-14.12zm-492.16 -370.08l197.09 2.39 0.66 158.2 -201.22 -1.86 3.47 -158.73zm-1345.67 320.3l26.02 181.17 -360.98 5.39c-4.48,151.3 109.4,113.45 184.93,44.18l169.4 7.42c-64.69,259.26 -531.32,235.17 -569.27,-39.42 -18.21,-131.85 48.69,-267.86 182.29,-308.32 212.39,-64.34 253.36,43.01 374.63,120.07 8.34,-151.77 -156.27,-159.26 -244.29,-167.02 -213.63,-18.83 -170.07,53.51 -320.39,91.28l-1.1 -188.38c-304.47,-74.3 -156.49,84.72 -361.11,97.05 -137.31,8.27 -325.51,20.47 -276.62,229.76 31.63,135.38 -1.22,84.74 -31.97,207.29l-54.34 4.66 36.62 121.12 -208.18 3.92 -50.4 -135.21c-265.95,-38.83 -173.09,5.51 -257.55,130.22l-144.85 2.34 5.8 -88.72 -52.15 33.97c20.45,101.27 72.06,133.17 183.04,92.26 84.03,-30.98 80.21,-90.13 114.87,-144.79l102.55 10.68c49.19,82.21 -0.86,71.51 90.34,152.15 74.51,1.49 93.1,-34.66 171.49,-8.12 30.85,10.44 42.76,20.97 55.26,57.59 10.47,30.67 3.31,27.2 3.49,33.88 1.66,63.36 -1.78,9.97 -5.2,13.4 167.88,30.99 120.31,63.57 221.02,38.55 -44.56,-39.47 -123.08,-16.42 -166.9,-76.74 -52.66,-72.49 7.28,-114.78 37.73,-170.13 -58.89,-88.83 -40.65,-138.88 55.4,-180.89 -52.98,-75.91 -130.33,-149.14 -20.47,-238.97 83.49,-68.27 209.35,-52.95 317.28,-53.92 36.55,-113.36 72.99,-119.01 196.37,-113.87l3.58 127.85 -98.22 13.11c12.37,92.81 53.98,72.05 30.56,194.13 -107.05,141.55 -203.68,65.06 -333.13,111.69 21.46,46.42 -45.23,41.4 162.19,47.06 57.07,1.56 117.19,7.04 166.87,36.28 147.99,87.11 35.81,198.02 7.96,269.66l50.78 -3.94c102,-199.66 28.59,-110.78 71.3,-192.61 89.57,43.59 135.45,92.42 260.85,89.03 236.46,-6.39 261.21,-112.35 357.4,-43.28 150.02,107.72 238.16,-2.03 292.5,-6.45 92.95,23.98 76.81,63.94 210.53,49.12 110.47,-12.24 73.8,-51.44 139.76,-114.6 52.63,25.51 63.3,42.96 126.89,53.03 -38.71,-72.75 -38.47,-46.83 -73.51,-92.74 -62.93,-82.44 -65.29,-274.38 66.97,-375.61 135.93,-104.03 405.58,-42.32 415.14,150.58l-151.2 12.07c-3.49,-3.91 -8.11,-13.71 -9.53,-10.84l-42.84 -48.82c-29.28,-19.6 2.14,-11.26 -35.27,-12.52 -81.67,-2.74 -5.18,-5.52 -43.52,12.1 -50.78,57.09 -38.15,172.52 -4.22,235.95 95.04,30.91 78.31,3.71 136.4,-54.24l150.89 7.05c-5.59,102.58 -89.89,135.1 -144.03,206.92 146.29,12.17 60.62,-50.28 168.31,-74.29 34.84,49.56 22.38,80.21 70.04,125.85l139.61 -26.18c97.06,-13.48 24,-9.61 107.86,-45.05 -2.91,0.9 -15.36,39.34 -14.82,-17.54 0.36,-38.89 0.64,-18.1 14.59,-40.87 96.17,94.47 153.67,127.83 302.76,98.85 141.15,-27.43 243.49,59.39 322.98,-22.24 27.46,-52.38 7.28,-251.07 5.5,-325.75 -2.35,-98.24 -1.92,-178.22 -102.26,-225.26 -75.84,-35.55 -223.6,-44.31 -306.03,-27.28 -205.35,42.42 -98.02,38.15 -209.19,133.75 -37.07,-42.09 -46.38,-70.63 -44.8,-117.09 7.06,-207.44 93.88,-218.59 -225.77,-224.82 -40.06,49.54 -70.39,5.85 -35.13,181.35 16.45,81.86 -7.33,110.13 -23.16,182.73 26.31,-79.43 -129.31,-166.28 -282.7,-162.43 -250.04,6.29 -251.25,146.32 -296.28,182.25 -43.98,-30.67 -21.93,-19.7 -45.19,-84.37 -56.6,-157.37 -238.43,-85.35 -341.67,-85.15 -163.02,0.31 3.97,-54.34 -250.91,26.74 -21.86,92.53 4.4,113.83 1.57,202.47 -21.7,-38.68 -25.87,-52.72 -73.17,-79.5z"/>
  <path class="fil1" d="M16225.48 10180.13c-580.56,154.97 -353.1,984.83 238.31,842.06 552.71,-133.43 342.43,-997.08 -238.31,-842.06z"/>
  <path class="fil3" d="M16386.42 13995.55l3.4 -527.06c232.61,-7.09 137.81,-5.4 184.45,73.39 65.81,-85.05 42.41,-79.35 155.55,-80.04l-0.46 163.18c-231.09,67.42 -106.08,51.44 -149.49,365.76l-193.45 4.77zm-642.24 -381.53c35.66,-175.78 304.01,-193.25 435.1,-128.32 130.16,64.49 91.3,261.5 94.67,500.01 -32.05,1.22 -93.04,6.02 -122.38,3.35 -55.31,-5.05 -47.42,-4.4 -79.99,-43.71 -1.66,-2.02 -4.09,-7.41 -6.89,-10.58 -121.17,89.91 -329.86,92.38 -346.39,-73.44 -20.25,-203.14 246,-180.32 345.06,-217.59 1.43,-57.03 37.8,-42.85 -37.42,-66.22 -108.81,-33.8 -10.28,73.91 -281.76,36.5zm642.24 381.53c13.13,24.58 -23.28,6.87 27.28,37.08 35.25,21.06 138.11,10.87 177.22,5.88 40.49,-61.99 45.66,-21.21 46.12,-121.51 0.6,-131.78 -33,-238.92 129.1,-240.92 9.09,173.26 -42.91,317.4 46.1,317.41l4.3 -709.97 194.44 10.35c-32.14,-50.76 14.03,-17.12 -52.08,-38.43 -140.02,-45.14 -191.42,41.09 -195.42,162.84 -66.33,5.35 -174.95,22.31 -233.42,14.37 -151.23,-20.55 -85.63,2.39 -201.32,38.76 -47.53,4.07 -153.89,-77.17 -372.6,-53.11 -133.15,14.64 -221.79,46.98 -262.23,171.11 35.78,76.54 35.19,18.18 75.98,93.22l-84.83 53.6 5.78 221.37c171.96,92.93 119.72,83.04 324.88,62.83 93.19,-9.17 111.67,23.47 189.02,15.23 80.92,-8.62 58.39,-37.32 181.68,-40.11z"/>
  <path class="fil3" d="M13228.24 13547.95l73.33 -54.97c101.05,-82.1 155.69,-24.18 257.99,-0.41 -2.15,-145.23 -19.27,-276.1 183.03,-193.68 29.83,60.52 29.86,616.81 0.47,674.01 -54.13,23.39 -82.45,14.79 -147.91,13.57l-18.34 -20.6c-2.63,-3.83 -13.93,-23.63 -15.89,-27.39 -331,180.24 -391.39,-123.11 -317.23,-397.38 -72.64,9.84 -84.37,37.44 -69.32,239.24 6.7,89.76 13.84,134.28 76.57,197.79 72.34,73.25 405.71,65.1 518.75,51.54l45.14 -158.15 73.86 7.62c-157.94,-523.54 544.53,-577.77 543.1,-116.29l-356.05 2.99c-6.24,106.45 27.43,100.65 124.03,98.76 87.27,-79.95 77.74,-61.57 217.98,-45.8l8.74 44.91c52.55,-17.26 20.51,22.21 38.61,-49.62 43.23,-171.57 -16.83,-327.82 -201.97,-378.03 -336.95,-91.38 -414.4,159.55 -455.72,191.91 5.77,-93.63 37.13,-289.65 -22.45,-354.81 -60.57,-49.04 -197.08,-35.51 -270.69,9.45l-4.44 127.52c-70.11,25.57 -290.21,-36.12 -281.59,137.82z"/>
  <path class="fil3" d="M19002.1 13990.89c-215.1,0.19 -197.89,40.43 -195.17,-160.09 1.34,-99.36 -11.12,-272.18 6.52,-360.57 170.65,-27.22 169.71,0.84 212.25,39.66 92.86,-73.81 249.21,-84.67 297.08,45.57 17.62,47.92 14.96,372.47 4.81,430.73 -61.21,6.44 -141.32,14.92 -194.99,-6.18l-12.72 -385.58c-182.9,-6.24 -75.66,147.39 -117.78,396.46zm907.17 160.95c-144.23,10.72 -242.68,36.53 -392.32,-0.52 -174.95,-43.32 -115.52,-127.48 -54.52,-218.79 -61.79,-102.28 -35.36,-120.51 50.65,-186.87 -34.72,-50.09 -26.98,-51.97 -74.33,-75.54 -12.7,57.04 -29.04,136.32 -75.13,196.7 -1.16,-87.55 9.87,-250.04 -11.22,-321.9 -10.17,-34.63 -14.53,-57.35 -22.69,-93.76 -133.99,-23.21 -102.5,-52.62 -278.04,-27.42 -103.99,14.92 -174.31,-27.06 -261.92,35.3 -36.95,76.69 -36.86,458.87 -6,540.09 140.25,84.9 184.57,15.91 295.83,-7.83 139.07,61.62 102.59,40.63 262.86,41.96 91.11,231.98 296.64,173.02 552.02,161.83l14.81 -43.25z"/>
  <path class="fil3" d="M18398.42 13463.83l3.76 121.1 -110.32 12.36 6.48 244.98 100.07 22.54 -2.84 119.22c-357.97,50.65 -298.14,-109.39 -302.53,-387.81l-91.69 -5.46 43.46 38.89c2.89,107.86 -25.43,287.69 67.08,356.62 155.8,116.1 298.53,21.19 298.79,21.14 70.48,5.39 253.7,82.65 278.27,-17.57l-205.24 0.41 2.14 -525.3 206.7 -0.68 0 -45.37 -213.04 -9.14 0.66 -152.93c-54.54,5.21 -22.17,-19.8 -57.05,14.4l30.47 169.62c-25.51,26.56 34.27,20.37 -55.17,22.98z"/>
  <path class="fil3" d="M15116.29 13994.75c-16.73,-126.81 17.82,-273.2 -23.15,-393.07l-78.61 2.64c-36.25,93.86 -11.72,279.35 -17.5,382.06l-191.52 1.34 -0.71 -522.4c132.1,-2.97 133.67,-22.61 209.82,42.14 117.94,-94.06 179.2,-48.6 280.23,16.82 381.97,-257.97 356.34,241.63 320.35,472.46 85.51,-16.67 50.5,-75.32 48.26,-166.05 -6.11,-248.05 44.17,-383.2 -157.43,-406.65 -110.98,-12.91 -110,12.61 -195.07,20.42 -96.78,8.89 -81.01,-27.48 -157.72,-32.79 -68.97,-4.77 -101.55,26.47 -191.52,19.43 -72.56,-5.67 -92.95,-32.58 -157.24,-8.57 -62.01,93.27 -41.7,466.62 -27.12,589.06 338.31,32.49 167.42,-53.56 338.93,-16.84z"/>
  <path class="fil3" d="M19438.75 13670.12c29.43,-230.97 139.96,-209.42 357.14,-212.4 85.88,-94.4 47.62,-114.62 212.59,-114.36l3.19 113.45 -105.24 32.82c26.05,74.48 107.27,160.21 -2.47,241.81 -67.29,50.04 -158.93,38.95 -213.33,44.45l-74.15 20.74c63.46,125.96 443.48,-93.32 386.66,280.49 37,-27.72 41.67,21.23 41.14,-93.4 -0.47,-100.98 -56.95,-122.04 -72.7,-136.83 -20.25,-19 -25.06,-28.02 -39.42,-50.26 68.96,-163.37 66.96,-27.79 64,-242.25 -1.62,-117.27 104.14,-27.08 51.3,-218.33 -17.36,-10.38 0.71,-12.05 -58.56,-24.44 -193.4,-40.41 -104.43,94.5 -350.08,111.51 -274.76,19.03 -291.99,240.88 -200.07,247z"/>
  <path class="fil3" d="M13508.38 13864.34c80.69,-53.41 81.83,-312.22 -29.9,-282.7 -57.01,15.06 -58.41,96.13 -58.47,147.25 -0.09,81.96 5.35,125.84 88.37,135.45z"/>
  <path class="fil3" d="M9610.55 13991.64c14.03,75.39 12.6,75.36 114.34,78.53 82.79,2.58 113.79,12.33 144.94,-53.06 -70.87,-51.25 -216.48,-40.57 -259.28,-25.47z"/>
  <path class="fil3" d="M19831.85 14017.73c-27.51,-21.44 2.35,-15.87 -60.93,-29.81l-202.01 11.28c23.52,109.67 228.81,95.16 262.94,18.53z"/>
  <path class="fil3" d="M15933.84 13857.16c67.27,32.98 62.89,29.4 131.74,-8.94l4.22 -103.65c-90.45,5.52 -143.67,14.14 -135.96,112.59z"/>
  <path class="fil3" d="M12513.16 13783.2l-8.12 79.67c128.13,48.87 132.29,-23.88 135.2,-112.14 -68.53,0.4 -72.38,-8.11 -127.08,32.47z"/>
  <path class="fil3" d="M9696.66 13567.89c-35.22,50.78 -32.37,53.33 1.69,102.4l89.37 8.83c51.48,-91.2 11.78,-150.06 -91.06,-111.23z"/>
  <path class="fil3" d="M19659.76 13565.57c-91.19,133.64 155.08,187.4 94.16,0.15 -71.4,-21.21 -30.95,-21.1 -94.16,-0.15z"/>
  <path class="fil3" d="M10310.63 13644.41c44.11,23.95 -46.76,10.48 61.76,20.72 25.27,2.38 62.33,-2.9 87.43,-5.35 -6.92,-120.84 -124.61,-125.81 -149.19,-15.37z"/>
  <path class="fil3" d="M17618.63 13663.26l149.68 0.99c-11.38,-128.03 -136.69,-135.66 -149.68,-0.99z"/>
  <path class="fil3" d="M14075.91 13644.32c36.08,19.25 -41.76,11.09 62.12,20.86 29.38,2.76 57.15,-2.78 85.39,-6.55 -7.53,-118.37 -120.58,-125.77 -147.51,-14.31z"/>
  <polygon class="fil3" points="8977.39,13686.33 9096.25,13697.91 9049.31,13507.75 "/>
 </g>
</svg>
